arm26_states
version=1
nRows=20
nColumns=17
inDegrees=yes

# SIMM Motion File Header:
name arm26_states
datacolumns 17
datarows 20
otherdata 1
range 0.08000001 0.08180842
endheader
time	/jointset/r_shoulder/r_shoulder_elev/value	/jointset/r_shoulder/r_shoulder_elev/speed	/jointset/r_elbow/r_elbow_flex/value	/jointset/r_elbow/r_elbow_flex/speed	/forceset/TRIlong/activation	/forceset/TRIlong/fiber_length	/forceset/TRIlat/activation	/forceset/TRIlat/fiber_length	/forceset/TRImed/activation	/forceset/TRImed/fiber_length	/forceset/BIClong/activation	/forceset/BIClong/fiber_length	/forceset/BICshort/activation	/forceset/BICshort/fiber_length	/forceset/BRA/activation	/forceset/BRA/fiber_length
      0.08000001	     -0.00000000	     -0.00001375	     -0.00000000	     -0.00084339	      0.04999999	      0.10001099	      0.04999999	      0.10000000	      0.04999999	      0.10000000	29949118364275822134982679088332140699232053420931772067062804923595028605664946823787782673937081619266390214063292829141790076730518303611764539219459314982844048080896.00000000	      0.10000166	54198852288689918979448261949618000466397335920872994793876781567594007460071971848236422595388339076348886397004140261854477646492241551075311616.00000000	      0.10000289	      0.04999999	      0.09999999
      0.08001107	     -0.00000024	     -0.05691328	     -0.00000378	     -0.56906818	      0.04999204	      0.10993848	      0.04999204	      0.09999638	      0.04999204	      0.09999638	29949118364275822134982679088332140699232053420931772067062804923595028605664946823787782673937081619266390214063292829141790076730518303611764539219459314982844048080896.00000000	      0.10091770	54198852288689918979448261949618000466397335920872994793876781567594007460071971848236422595388339076348886397004140261854477646492241551075311616.00000000	      0.10163173	      0.04999204	      0.09998788
      0.08002213	     -0.00000148	     -0.17580345	     -0.00001057	     -0.58397571	      0.04998409	      0.11676062	      0.04998409	      0.09999276	      0.04998409	      0.09999276	29949118364275822134982679088332140699232053420931772067062804923595028605664946823787782673937081619266390214063292829141790076730518303611764539219459314982844048080896.00000000	      0.10180862	54198852288689918979448261949618000466397335920872994793876781567594007460071971848236422595388339076348886397004140261854477646492241551075311616.00000000	      0.10317714	      0.04998409	      0.09997579
      0.08004111	     -0.00000744	     -0.46597995	     -0.00001552	      0.19617765	      0.04997046	      0.12428710	      0.04997046	      0.09998655	      0.04997046	      0.09998655	29949118364275822134982679088332140699232053420931772067062804923595028605664946823787782673937081619266390214063292829141790076730518303611764539219459314982844048080896.00000000	      0.10328253	54198852288689918979448261949618000466397335920872994793876781567594007460071971848236422595388339076348886397004140261854477646492241551075311616.00000000	      0.10565401	      0.04997046	      0.09995506
      0.08006429	     -0.00002312	     -0.89550494	      0.00000791	      1.92457429	      0.04995381	      0.12940714	      0.04995381	      0.09997897	      0.04995381	      0.09997897	29949118364275822134982679088332140699232053420931772067062804923595028605664946823787782673937081619266390214063292829141790076730518303611764539219459314982844048080896.00000000	      0.10499327	54198852288689918979448261949618000466397335920872994793876781567594007460071971848236422595388339076348886397004140261854477646492241551075311616.00000000	      0.10841108	      0.04995381	      0.09992980
      0.08008747	     -0.00004917	     -1.35440076	      0.00007670	      4.05258623	      0.04993718	      0.13214002	      0.04993718	      0.09997139	      0.04993718	      0.09997139	29949118364275822134982679088332140699232053420931772067062804923595028605664946823787782673937081619266390214063292829141790076730518303611764539219459314982844048080896.00000000	      0.10661409	54198852288689918979448261949618000466397335920872994793876781567594007460071971848236422595388339076348886397004140261854477646492241551075311616.00000000	      0.11091295	      0.04993718	      0.09990460
      0.08011064	     -0.00008590	     -1.81365852	      0.00019685	      6.32691289	      0.04992054	      0.13360921	      0.04992054	      0.09996381	      0.04992054	      0.09996381	29949118364275822134982679088332140699232053420931772067062804923595028605664946823787782673937081619266390214063292829141790076730518303611764539219459314982844048080896.00000000	      0.10815194	54198852288689918979448261949618000466397335920872994793876781567594007460071971848236422595388339076348886397004140261854477646492241551075311616.00000000	      0.11319229	      0.04992054	      0.09987945
      0.08014031	     -0.00014819	     -2.38049242	      0.00042808	      9.25279363	      0.04989926	      0.13454741	      0.04989926	      0.09995410	      0.04989926	      0.09995410	29949118364275822134982679088332140699232053420931772067062804923595028605664946823787782673937081619266390214063292829141790076730518303611764539219459314982844048080896.00000000	      0.11000910	54198852288689918979448261949618000466397335920872994793876781567594007460071971848236422595388339076348886397004140261854477646492241551075311616.00000000	      0.11582702	      0.04989926	      0.09984734
      0.08016998	     -0.00022680	     -2.91267895	      0.00074487	     12.08107442	      0.04987800	      0.13498298	      0.04987800	      0.09994440	      0.04987800	      0.09994440	29949118364275822134982679088332140699232053420931772067062804923595028605664946823787782673937081619266390214063292829141790076730518303611764539219459314982844048080896.00000000	      0.11175135	54198852288689918979448261949618000466397335920872994793876781567594007460071971848236422595388339076348886397004140261854477646492241551075311616.00000000	      0.11818512	      0.04987800	      0.09981532
      0.08020716	     -0.00034668	     -3.52525875	      0.00125673	     15.40902603	      0.04985135	      0.13527317	      0.04985135	      0.09993224	      0.04985135	      0.09993224	29949118364275822134982679088332140699232053420931772067062804923595028605664946823787782673937081619266390214063292829141790076730518303611764539219459314982844048080896.00000000	      0.11378722	54198852288689918979448261949618000466397335920872994793876781567594007460071971848236422595388339076348886397004140261854477646492241551075311616.00000000	      0.12080453	      0.04985135	      0.09977532
      0.08026079	     -0.00055725	     -4.30962555	      0.00220236	     19.77555059	      0.04981295	      0.13549964	      0.04981295	      0.09991470	      0.04981295	      0.09991470	29949118364275822134982679088332140699232053420931772067062804923595028605664946823787782673937081619266390214063292829141790076730518303611764539219459314982844048080896.00000000	      0.11646362	54198852288689918979448261949618000466397335920872994793876781567594007460071971848236422595388339076348886397004140261854477646492241551075311616.00000000	      0.12402832	      0.04981295	      0.09971787
      0.08035097	     -0.00099733	     -5.40934705	      0.00427999	     26.10847546	      0.04974846	      0.13567999	      0.04974846	      0.09988521	      0.04974846	      0.09988521	29949118364275822134982679088332140699232053420931772067062804923595028605664946823787782673937081619266390214063292829141790076730518303611764539219459314982844048080896.00000000	      0.12036543	54198852288689918979448261949618000466397335920872994793876781567594007460071971848236422595388339076348886397004140261854477646492241551075311616.00000000	      0.12828464	      0.04974846	      0.09962191
      0.08050273	     -0.00193053	     -6.81088864	      0.00891465	     34.57735138	      0.04964013	      0.13578893	      0.04964013	      0.09983560	      0.04964013	      0.09983560	29949118364275822134982679088332140699232053420931772067062804923595028605664946823787782673937081619266390214063292829141790076730518303611764539219459314982844048080896.00000000	      0.12556481	54198852288689918979448261949618000466397335920872994793876781567594007460071971848236422595388339076348886397004140261854477646492241551075311616.00000000	      0.13312093	      0.04964013	      0.09946222
      0.08065450	     -0.00304658	     -7.85075462	      0.01468027	     41.15021841	      0.04953206	      0.13582488	      0.04953206	      0.09978600	      0.04953206	      0.09978600	29949118364275822134982679088332140699232053420931772067062804923595028605664946823787782673937081619266390214063292829141790076730518303611764539219459314982844048080896.00000000	      0.12944681	54198852288689918979448261949618000466397335920872994793876781567594007460071971848236422595388339076348886397004140261854477646492241551075311616.00000000	      0.13607282	      0.04953206	      0.09930474
      0.08080627	     -0.00430286	     -8.67787190	      0.02134354	     46.49505569	      0.04942427	      0.13584646	      0.04942427	      0.09973641	      0.04942427	      0.09973641	29949118364275822134982679088332140699232053420931772067062804923595028605664946823787782673937081619266390214063292829141790076730518303611764539219459314982844048080896.00000000	      0.13234187	54198852288689918979448261949618000466397335920872994793876781567594007460071971848236422595388339076348886397004140261854477646492241551075311616.00000000	      0.13787830	      0.04942427	      0.09914940
      0.08095804	     -0.00567444	     -9.38142632	      0.02875308	     51.04168621	      0.04931673	      0.13586323	      0.04931673	      0.09968684	      0.04931673	      0.09968684	29949118364275822134982679088332140699232053420931772067062804923595028605664946823787782673937081619266390214063292829141790076730518303611764539219459314982844048080896.00000000	      0.13449256	54198852288689918979448261949618000466397335920872994793876781567594007460071971848236422595388339076348886397004140261854477646492241551075311616.00000000	      0.13898240	      0.04931673	      0.09899615
      0.08114895	     -0.00754199	    -10.17033577	      0.03898501	     56.04388920	      0.04918184	      0.13588076	      0.04918184	      0.09962450	      0.04918184	      0.09962450	29949118364275822134982679088332140699232053420931772067062804923595028605664946823787782673937081619266390214063292829141790076730518303611764539219459314982844048080896.00000000	      0.13642018	54198852288689918979448261949618000466397335920872994793876781567594007460071971848236422595388339076348886397004140261854477646492241551075311616.00000000	      0.13978326	      0.04918184	      0.09880626
      0.08133986	     -0.00955432	    -10.90508170	      0.05012102	     60.55585642	      0.04904737	      0.13589582	      0.04904737	      0.09956218	      0.04904737	      0.09956218	29949118364275822134982679088332140699232053420931772067062804923595028605664946823787782673937081619266390214063292829141790076730518303611764539219459314982844048080896.00000000	      0.13772986	54198852288689918979448261949618000466397335920872994793876781567594007460071971848236422595388339076348886397004140261854477646492241551075311616.00000000	      0.14021344	      0.04904737	      0.09861949
      0.08157414	     -0.01221153	    -11.77539330	      0.06491798	     65.70948079	      0.04888291	      0.13591213	      0.04888291	      0.09948574	      0.04888291	      0.09948574	29949118364275822134982679088332140699232053420931772067062804923595028605664946823787782673937081619266390214063292829141790076730518303611764539219459314982844048080896.00000000	      0.13877123	54198852288689918979448261949618000466397335920872994793876781567594007460071971848236422595388339076348886397004140261854477646492241551075311616.00000000	      0.14048034	      0.04888291	      0.09839441
      0.08180842	     -0.01507086	    -12.63245504	      0.08089168	     70.62344665	      0.04871907	      0.13592675	      0.04871907	      0.09940933	      0.04871907	      0.09940933	29949118364275822134982679088332140699232053420931772067062804923595028605664946823787782673937081619266390214063292829141790076730518303611764539219459314982844048080896.00000000	      0.13941059	54198852288689918979448261949618000466397335920872994793876781567594007460071971848236422595388339076348886397004140261854477646492241551075311616.00000000	      0.14062985	      0.04871907	      0.09817371
